ply
format ascii 1.0
comment VCGLIB generated
element vertex 8
property float x
property float y
property float z
property float nx
property float ny
property float nz
property uchar red
property uchar green
property uchar blue
property uchar alpha
property float texture_u
property float texture_v
element face 12
property list uchar int vertex_indices
end_header
1 1 -1 0.816497 0.408248 -0.408248 192 192 192 255 1 1
1 -1 -1 0.333333 -0.666667 -0.666667 192 192 192 255 1 -1
1 1 1 0.333333 0.666667 0.666667 192 192 192 255 1 1
1 -1 1 0.816497 -0.408248 0.408248 192 192 192 255 1 -1
-1 1 -1 -0.333333 0.666667 -0.666667 192 192 192 255 -1 1
-1 -1 -1 -0.816497 -0.408248 -0.408248 192 192 192 255 -1 -1
-1 1 1 -0.816497 0.408248 0.408248 192 192 192 255 -1 1
-1 -1 1 -0.333333 -0.666667 0.666667 192 192 192 255 -1 -1
3 4 2 0 
3 2 7 3 
3 6 5 7 
3 1 7 5 
3 0 3 1 
3 4 1 5 
3 4 6 2 
3 2 6 7 
3 6 4 5 
3 1 3 7 
3 0 2 3 
3 4 0 1 
