ply
format ascii 1.0
comment VCGLIB generated
comment TextureFile LowPolyTexture_Variant1.png
element vertex 62
property float x
property float y
property float z
property float nx
property float ny
property float nz
property uchar red
property uchar green
property uchar blue
property uchar alpha
property float texture_u
property float texture_v
element face 120
property list uchar int vertex_indices
end_header
0 9.24169 -2.87551 3.8698 -7.7486e-007 -1.8451 230 230 230 255 0.189509 0.989418
0.576985 9.73125 -0.668006 4.19559 2.22527 -1.08891 230 230 230 255 0.189509 0.989418
-0.220389 10.0982 -1.00068 -0.616168 4.45473 -1.15734 230 230 230 255 0.189509 0.989418
-0.713193 9.24169 -2.04981 -4.7114 -0.0107635 -0.582099 230 230 230 255 0.189509 0.989418
-0.220389 8.45012 -1.00068 -0.757413 -4.6257 -0.743437 230 230 230 255 0.189509 0.989418
0.576985 8.75247 -0.665459 4.08956 -2.41372 -0.921936 230 230 230 255 0.189509 0.989418
0.713193 9.24169 1.63038 4.66149 0.767406 0.678266 230 230 230 255 0.189509 0.989418
0.220389 10.1622 0.670555 1.94778 4.16614 1.26985 230 230 230 255 0.189509 0.989418
-0.580312 9.86006 0.668009 -4.14945 2.10796 1.25791 230 230 230 255 0.189509 0.989418
-0.581249 8.75247 0.670555 -4.24773 -2.18375 0.895776 230 230 230 255 0.189509 0.989418
0.220389 8.45012 1.63038 0.668199 -4.51669 0.754391 230 230 230 255 0.189509 0.989418
0 9.24169 2.45608 -3.24077 2.1261 2.24995 230 230 230 255 0.189509 0.989418
-0.129541 9.70696 -2.46555 3.08268 5.89537 -2.51513 230 230 230 255 0.189509 0.989418
0.209602 10.0383 -0.838653 4.07614 6.1903 -2.17773 230 230 230 255 0.189509 0.989418
0.339143 9.52925 -1.55531 6.83407 2.67718 -2.44643 230 230 230 255 0.189509 0.989418
0.149581 9.77894 -1.62959 1.88487 2.01591 -0.86805 230 230 230 255 0.189509 0.989418
-0.419204 9.24169 -3.47678 -1.05626 -3.99351e-006 -2.60459 230 230 230 255 0.189509 0.989418
-0.548745 9.70696 -1.98022 -5.45661 4.78292 -1.34754 230 230 230 255 0.189509 0.989418
-0.391609 9.57373 -2.9986 -0.523768 1.88872 -0.875463 230 230 230 255 0.189509 0.989418
-0.129541 8.77642 -2.46555 2.98716 -5.99043 -2.39661 230 230 230 255 0.189509 0.989418
-0.548745 8.77642 -1.98022 -5.3075 -4.91849 -1.13524 230 230 230 255 0.189509 0.989418
-0.391609 8.90965 -2.9986 -0.494787 -1.90184 -0.850431 230 230 230 255 0.189509 0.989418
0.339143 8.95414 -1.55531 6.78939 -2.7431 -2.42054 230 230 230 255 0.189509 0.989418
0.209602 8.48886 -0.838653 3.50242 -6.59584 -1.62164 230 230 230 255 0.189509 0.989418
0.149581 8.70444 -1.62959 1.7859 -2.08207 -0.821389 230 230 230 255 0.189509 0.989418
0.678286 9.24169 -0.785288 7.48958 -0.0671761 -1.89177 230 230 230 255 0.189509 0.989418
0.484055 9.24169 -1.27926 2.7965 -0.00121485 -0.931216 230 230 230 255 0.189509 0.989418
-0 10.3785 2e-006 1.35028 7.19779 -0.362695 230 230 230 255 0.189509 0.989418
0.468684 10.0449 2e-006 5.77785 5.26523 -0.189054 230 230 230 255 0.189509 0.989418
0.242028 10.2182 -0.280207 1.53498 2.39856 -0.474403 230 230 230 255 0.189509 0.989418
-0.760627 9.56661 -0.284687 -7.63098 1.93059 0.0737855 230 230 230 255 0.189509 0.989418
-0.46882 10.1961 -0.053364 -5.16004 5.52497 -0.240045 230 230 230 255 0.189509 0.989418
-0.633772 9.8328 -0.722814 -2.4618 1.51405 -0.234181 230 230 230 255 0.189509 0.989418
-0.469429 8.48886 -0.053364 -4.8765 -5.9856 0.0706678 230 230 230 255 0.189509 0.989418
-0.760684 8.95414 -0.284687 -7.49765 -2.22694 0.150252 230 230 230 255 0.189509 0.989418
-0.633819 8.70444 -0.722814 -2.36311 -1.66842 -0.129983 230 230 230 255 0.189509 0.989418
0.468684 8.48886 0.37547 4.88287 -6.00391 -0.0939128 230 230 230 255 0.189509 0.989418
0 8.31114 0.078285 -0.158338 -7.67422 -0.112216 230 230 230 255 0.189509 0.989418
0.242028 8.3724 -0.219378 1.09831 -2.66496 -0.260601 230 230 230 255 0.189509 0.989418
0.758347 9.52925 0.078285 7.47868 2.28073 -0.194319 230 230 230 255 0.189509 0.989418
0.758347 8.95414 0.37547 7.53617 -2.03204 -0.110596 230 230 230 255 0.189509 0.989418
0.783218 9.24169 -0.219377 2.90435 -0.0128289 -0.267044 230 230 230 255 0.189509 0.989418
0.548745 9.70888 1.16076 5.69806 4.93807 1.60752 230 230 230 255 0.189509 0.989418
0.633636 9.78703 0.34104 2.51188 1.54743 0.179971 230 230 230 255 0.189509 0.989418
-0.209767 10.2008 0.785291 -2.30093 6.10499 2.86753 230 230 230 255 0.189509 0.989418
-0.242028 10.3621 0.28021 -0.871896 2.52369 0.287865 230 230 230 255 0.189509 0.989418
-0.685231 9.2522 0.785291 -7.47363 0.0440138 1.96079 230 230 230 255 0.189509 0.989418
-0.788527 9.24978 0.187928 -2.91963 -0.0377066 0.240492 230 230 230 255 0.189509 0.989418
-0.210286 8.48886 1.16076 -4.1441 -6.18104 1.51498 230 230 230 255 0.189509 0.989418
-0.242325 8.3724 0.34104 -1.19528 -2.63929 0.208325 230 230 230 255 0.189509 0.989418
0.548745 8.77642 2.32211 5.70192 -3.80402 1.32297 230 230 230 255 0.189509 0.989418
0.633636 8.70444 1.07914 2.42558 -1.54623 0.132956 230 230 230 255 0.189509 0.989418
0.129528 9.72 1.6461 -0.589866 6.68314 3.33659 230 230 230 255 0.189509 0.989418
0.419204 9.24169 2.80745 1.78726 3.72306 3.02135 230 230 230 255 0.189509 0.989418
0.391609 9.57373 1.98592 0.973216 2.27689 0.968254 230 230 230 255 0.189509 0.989418
-0.342524 9.57065 1.34891 -5.95348 3.44894 3.39213 230 230 230 255 0.189509 0.989418
-0.150521 9.87579 1.24781 -1.12827 2.1819 1.39841 230 230 230 255 0.189509 0.989418
-0.341532 8.95414 1.6461 -7.2038 -1.14047 2.59803 230 230 230 255 0.189509 0.989418
-0.489552 9.24767 1.24781 -2.72848 0.236855 1.07659 230 230 230 255 0.189509 0.989418
0.129541 8.77642 2.80745 -3.32686 -2.9361 3.01274 230 230 230 255 0.189509 0.989418
-0.149699 8.70444 1.98592 -2.1436 -1.4527 0.856153 230 230 230 255 0.189509 0.989418
0.391609 8.90965 3.0585 0.624538 -0.479765 1.13106 230 230 230 255 0.189509 0.989418
3 14 0 12 
3 14 12 15 
3 12 2 13 
3 12 13 15 
3 13 1 14 
3 13 14 15 
3 12 0 16 
3 12 16 18 
3 16 3 17 
3 16 17 18 
3 17 2 12 
3 17 12 18 
3 16 0 19 
3 16 19 21 
3 19 4 20 
3 19 20 21 
3 20 3 16 
3 20 16 21 
3 19 0 22 
3 19 22 24 
3 22 5 23 
3 22 23 24 
3 23 4 19 
3 23 19 24 
3 22 0 14 
3 22 14 26 
3 14 1 25 
3 14 25 26 
3 25 5 22 
3 25 22 26 
3 28 1 13 
3 28 13 29 
3 13 2 27 
3 13 27 29 
3 27 7 28 
3 27 28 29 
3 31 2 17 
3 31 17 32 
3 17 3 30 
3 17 30 32 
3 30 8 31 
3 30 31 32 
3 34 3 20 
3 34 20 35 
3 20 4 33 
3 20 33 35 
3 33 9 34 
3 33 34 35 
3 37 4 23 
3 37 23 38 
3 23 5 36 
3 23 36 38 
3 36 10 37 
3 36 37 38 
3 40 5 25 
3 40 25 41 
3 25 1 39 
3 25 39 41 
3 39 6 40 
3 39 40 41 
3 39 1 28 
3 39 28 43 
3 28 7 42 
3 28 42 43 
3 42 6 39 
3 42 39 43 
3 27 2 31 
3 27 31 45 
3 31 8 44 
3 31 44 45 
3 44 7 27 
3 44 27 45 
3 30 3 34 
3 30 34 47 
3 34 9 46 
3 34 46 47 
3 46 8 30 
3 46 30 47 
3 33 4 37 
3 33 37 49 
3 37 10 48 
3 37 48 49 
3 48 9 33 
3 48 33 49 
3 36 5 40 
3 36 40 51 
3 40 6 50 
3 40 50 51 
3 50 10 36 
3 50 36 51 
3 53 6 42 
3 53 42 54 
3 42 7 52 
3 42 52 54 
3 52 11 53 
3 52 53 54 
3 52 7 44 
3 52 44 56 
3 44 8 55 
3 44 55 56 
3 55 11 52 
3 55 52 56 
3 55 8 46 
3 55 46 58 
3 46 9 57 
3 46 57 58 
3 57 11 55 
3 57 55 58 
3 57 9 48 
3 57 48 60 
3 48 10 59 
3 48 59 60 
3 59 11 57 
3 59 57 60 
3 59 10 50 
3 59 50 61 
3 50 6 53 
3 50 53 61 
3 53 11 59 
3 53 59 61 
